<svg height="1024pt" stroke-miterlimit="10" style="fill-rule:nonzero;clip-rule:evenodd;stroke-linecap:round;stroke-linejoin:round" viewBox="0 0 1024 1024" width="1024pt" xml:space="preserve" xmlns="http://www.w3.org/2000/svg"><path d="M0 256C0 114.615 114.615 0 256 0h512c141.385 0 256 114.615 256 256v512c0 141.385-114.615 256-256 256H256C114.615 1024 0 909.385 0 768z" fill="#d9e3d4"/><path d="M316.338 114.859c-70.692.001-127.999 57.308-127.999 128v541.604c0 70.668 57.269 127.965 127.937 128l487.97.242c16.242.008 29.413-13.157 29.413-29.399-41.888 0-75.765-33.877-75.765-75.765 0-41.856 33.877-75.734 75.765-75.734V242.856c0-70.693-57.308-128-128.001-128zM728.48 807.224c0 29.73 12.792 56.579 32.612 75.766H323.514c-41.7 0-75.504-33.805-75.505-75.505 0-41.644 33.717-75.426 75.361-75.505l438.671-.838c-20.453 19.187-33.561 46.036-33.561 76.082" fill="#3d6c5f"/><g fill="#d9e3d4"><path d="M723.369 346.354c0-42.863-36.532-76.743-82.047-76.743-7.957 0-15.999 1.797-24.041 3.593-13.346-41.066-54.413-70.497-102.58-70.497s-89.234 29.431-102.58 70.497c-7.102-2.737-15.999-3.593-24.041-3.593-45.516 0-82.989 34.821-82.989 76.743 0 36.617 27.635 67.845 65.108 74.946l.001 136.712c0 35.346 28.654 64 64 64h160.061c35.346 0 63.999-28.654 64-64l.001-136.712c37.473-8.042 65.107-38.414 65.107-74.946m-80.935 41.066c-9.839 0-17.881 8.042-17.881 17.881v117.89c0 35.346-28.653 64-64 64H469.05c-35.358 0-64.017-28.672-64-64.03l.055-117.86c0-9.839-8.042-17.881-17.881-17.881-25.923 0-47.312-17.881-47.312-41.066 0-22.33 21.475-41.067 47.312-41.067 9.753 0 19.335 3.08 27.634 8.043 10.438 6.16 26.095.599 27.72-14.288 1.711-34.735 32.939-61.514 72.208-61.514 39.185 0 70.412 27.634 72.209 61.514 1.112 13.175 16.084 21.474 27.719 14.288 8.214-5.134 17.796-8.043 27.635-8.043 25.923 0 47.312 17.881 47.312 41.067 0 22.33-21.475 41.066-47.227 41.066"/><path d="M474.576 459.543c-9.839 0-17.767 4.854-17.881 17.881s0 45.515 0 45.515c0 9.839 8.042 17.881 17.881 17.881 9.838 0 17.795-7.101 17.881-17.881v-45.515c.085-9.839-8.043-17.881-17.881-17.881m80.25 0c-9.839 0-17.881 8.042-17.881 17.881v45.515c0 9.839 8.042 17.881 17.881 17.881 8.983 0 16.94-7.101 17.881-17.881v-45.515c.086-9.839-8.042-17.881-17.881-17.881"/></g></svg>