<?xml version="1.0" encoding="UTF-8" standalone="no"?>
<!DOCTYPE svg PUBLIC "-//W3C//DTD SVG 1.1//EN" "http://www.w3.org/Graphics/SVG/1.1/DTD/svg11.dtd">
<!-- Created with Vectornator (http://vectornator.io/) -->
<svg height="1024.0pt" stroke-miterlimit="10" style="fill-rule:nonzero;clip-rule:evenodd;stroke-linecap:round;stroke-linejoin:round;" version="1.1" viewBox="0 0 1024 1024" width="1024.0pt" xml:space="preserve" xmlns="http://www.w3.org/2000/svg" xmlns:xlink="http://www.w3.org/1999/xlink">
<defs/>
<g id="Layer-1" transform="matrix(1 0 0 1 0 0)">
<path d="M0 200.03C0 89.5565 89.5565 0 200.03 0L823.97 0C934.444 0 1024 89.5565 1024 200.03L1024 823.97C1024 934.444 934.444 1024 823.97 1024L200.03 1024C89.5565 1024 0 934.444 0 823.97L0 200.03Z" fill="#d9e3d4" fill-rule="nonzero" opacity="0" stroke="#f4006f" stroke-linecap="butt" stroke-linejoin="round" stroke-opacity="0.216481" stroke-width="0"/>
<g opacity="1">
<path d="M540.482 881.939C540.482 881.939 526.654 881.939 526.646 870.87C526.638 859.802 526.639 560.951 526.646 547.115C526.654 533.279 533.737 528.707 541.649 522.211C549.562 515.715 555.528 512.829 569.883 502.471C584.237 492.114 593.879 485.467 607.347 475.439C620.815 465.412 640.877 454.772 670.537 441.964C700.198 429.156 726.831 420.631 750.157 414.671C773.484 408.712 793.502 405.319 809.932 402.776C826.362 400.233 839.938 398.961 849.407 398.325C858.876 397.69 864.237 400.457 864.237 405.991C864.237 411.525 864.237 397.69 864.237 397.69L864.237 370.018C864.237 370.018 858.53 370.191 848.456 371.056C838.382 371.921 823.941 373.477 806.473 376.244C789.005 379.012 770.63 382.211 748.817 387.875C727.004 393.539 701.754 401.667 670.537 414.293C639.321 426.918 618.221 437.467 601.251 447.455C584.281 457.443 571.439 466.868 556.739 477.245C542.038 487.622 530.365 496.788 522.366 503.36C514.367 509.932 510.043 508.375 510.043 508.375C510.043 508.375 505.941 508.375 498.312 503.428C490.684 498.481 479.623 487.808 465.769 477.591C438.098 457.183 399.358 432.279 355.084 414.293C310.81 396.306 261.001 385.238 222.261 378.666C183.521 372.094 155.85 370.018 155.85 370.018L166.918 397.69C166.918 397.69 184.559 399.765 223.818 406.337C263.076 412.909 312.885 423.977 355.084 441.964C397.283 459.95 431.872 484.855 455.911 505.262C479.951 525.67 493.441 536.047 493.441 547.115C493.441 558.184 493.441 868.103 493.441 870.87C493.441 881.939 482.372 881.939 482.372 881.939L97.7399 881.939C91.6269 881.939 86.6714 876.983 86.6714 870.87L86.6714 464.101C86.6714 457.988 91.6269 453.032 97.7399 453.032L117.11 453.032C123.223 453.032 128.178 457.988 128.178 464.101L128.178 829.363C128.178 835.476 133.134 840.432 139.247 840.432L155.85 840.432L438.098 840.432C438.098 840.432 449.166 840.432 449.166 826.596C449.166 812.76 438.098 812.76 438.098 812.76L438.098 812.76L438.098 812.76L166.918 812.76C160.805 812.76 155.85 807.805 155.85 801.692L155.85 453.032L155.85 406.337C155.85 406.337 155.85 411.077 155.85 402.776C155.85 399.061 158.899 397.69 161.384 397.69C164.151 397.69 166.918 397.69 166.918 397.69L155.85 370.018L139.247 370.018C133.134 370.018 128.178 374.974 128.178 381.087L128.178 414.293C128.178 420.406 123.223 425.361 117.11 425.361L86.6714 425.361L70.0686 425.361C63.9556 425.361 59 430.317 59 436.43L59 453.032L59 882.147L59 898.542C59 904.655 63.9556 909.61 70.0686 909.61L86.6714 909.61C86.6714 909.61 465.903 909.61 479.672 909.61C493.441 909.61 479.672 923.446 493.441 923.446C507.209 923.446 512.826 923.446 526.654 923.446C540.482 923.446 529.413 909.61 540.482 909.61C551.55 909.61 448.475 909.61 554.318 909.61C660.161 909.61 927.881 909.61 947.251 909.61C966.621 909.61 963.877 887.093 963.854 884.62C963.831 882.147 963.854 436.43 963.854 436.43C963.854 436.43 965.152 425.361 947.251 425.361C929.351 425.361 892.251 425.361 892.251 425.361L891.977 381.018C891.939 374.932 886.994 370.018 880.908 370.018L864.237 370.018L864.237 397.69L864.237 397.69L864.237 472.402C864.237 472.402 864.237 483.471 878.073 483.471C891.908 483.471 891.908 472.402 891.908 472.402L891.908 464.101C891.908 457.988 896.864 453.032 902.977 453.032L925.041 453.032C931.182 453.032 936.15 458.033 936.109 464.174L933.415 870.987L933.415 871.279C933.415 877.166 928.643 881.939 922.756 881.939L922.347 881.939L933.415 881.939L933.415 881.939L736.949 882.147L540.482 881.939Z" fill="#5a8470" fill-rule="nonzero" opacity="1" stroke="#f4006f" stroke-linecap="butt" stroke-linejoin="round" stroke-opacity="0.216481" stroke-width="0"/>
</g>
<g opacity="1">
<path d="M783.622 599.265C787.294 601.789 792.291 599.16 792.291 594.704L792.291 544.348L792.291 483.471C792.291 483.471 792.291 472.402 806.127 472.402C819.963 472.402 819.963 483.471 819.963 483.471L819.963 544.348L819.963 594.704C819.963 599.16 824.96 601.789 828.632 599.265L852.242 583.033C859.751 577.871 864.237 569.343 864.237 560.231L864.237 513.909C864.237 513.909 864.237 502.841 878.073 502.841C891.908 502.841 891.908 513.909 891.908 513.909L891.908 726.979L864.237 726.979L864.237 706.526C864.237 702.179 859.456 699.529 855.77 701.833L855.77 701.833C848.432 706.419 853.168 676.042 853.168 663.335L853.168 663.335C853.903 662.784 858.722 659.858 861.47 655.033C863.839 650.873 864.237 644.756 864.237 643.965L864.237 641.198L864.237 618.513C864.237 614.057 859.239 611.428 855.567 613.952L831.958 630.184C824.449 635.347 819.963 643.875 819.963 652.987L819.963 663.335L819.963 677.171C819.963 681.731 825.169 684.334 828.818 681.598L864.237 655.033L864.237 696.541L832.968 716.083C824.878 721.14 819.963 730.008 819.963 739.549L819.963 747.733L819.963 761.268C819.963 765.615 824.744 768.265 828.43 765.961L851.231 751.71C859.322 746.654 864.237 737.786 864.237 728.245L864.237 726.979L891.908 726.979L891.908 740.599C891.908 749.43 887.694 757.731 880.564 762.941L831.308 798.936C824.178 804.146 819.963 812.446 819.963 821.277L819.963 825.212L819.963 840.432C819.963 840.432 819.963 851.5 806.127 851.5C792.291 851.5 792.291 840.432 792.291 840.432L792.291 825.212L792.291 821.277C792.291 812.446 788.077 804.146 780.947 798.936L731.691 762.941C724.561 757.731 720.346 749.43 720.346 740.599L720.346 513.909C720.346 513.909 720.346 502.841 734.182 502.841C748.017 502.841 748.017 513.909 748.017 513.909L748.017 556.064C748.017 574.786 754.916 577.811 759.086 583.088L756.319 580.494L769.229 600.293C774.68 608.654 764.949 618.574 756.485 613.284L756.485 613.284C752.799 610.98 748.017 613.631 748.017 617.977L748.017 619.061L748.017 641.198C748.017 646.448 749.507 651.513 752.217 655.853C754.003 658.714 756.318 661.259 759.086 663.335L790.078 686.579C791.471 687.624 792.291 689.264 792.291 691.006L792.291 691.006C792.291 705.07 776.518 713.368 764.929 705.4L754.858 698.476C751.961 696.484 748.017 698.559 748.017 702.075L748.017 702.075L748.017 728.245C748.017 737.786 752.932 746.654 761.023 751.71L783.824 765.961C787.51 768.265 792.291 765.615 792.291 761.268L792.291 747.733L792.291 724.212L748.017 693.773L748.017 655.033L748.017 655.033L783.437 681.598C787.085 684.334 792.291 681.731 792.291 677.171L792.291 663.335L792.291 652.987C792.291 643.875 787.805 635.347 780.297 630.184L748.017 607.992L748.017 574.786L783.622 599.265Z" fill="#5a8470" fill-rule="nonzero" opacity="1" stroke="#f4006f" stroke-linecap="butt" stroke-linejoin="round" stroke-opacity="0.216481" stroke-width="0"/>
</g>
<g opacity="1">
<path d="M642.866 195.689C642.866 195.689 642.866 206.757 629.03 206.757C615.195 206.757 615.195 195.689 615.195 195.689C615.195 195.689 616.608 112.675 512.811 112.675C409.013 112.675 410.426 195.689 410.426 195.689C410.426 195.689 410.426 206.757 396.589 206.757C382.752 206.757 382.755 195.689 382.755 195.689L382.755 347.881C382.755 336.813 377.8 336.813 371.687 336.813L355.084 336.813C355.084 336.813 299.741 334.046 299.741 251.031C299.741 168.017 355.084 168.017 355.084 168.017L377.465 168.017C377.465 168.017 385.522 168.017 385.522 176.319C385.522 177.355 385.522 161.099 385.522 154.182C385.522 147.264 385.522 140.346 385.522 140.346L355.084 140.346C355.084 140.346 272.07 140.346 272.07 251.031C272.07 361.717 355.084 364.484 355.084 364.484L355.084 364.484C355.084 379.012 355.084 394.923 355.084 394.923L355.084 414.293L438.098 458.567L438.098 458.567C435.331 455.8 439.207 453.032 440.865 453.032L435.331 453.032L472.687 453.032L576.455 453.032C576.455 453.032 584.756 453.032 584.756 455.8C584.756 458.567 581.989 461.334 581.989 461.334L593.058 453.032L601.359 425.361C590.29 425.361 590.164 414.965 590.29 414.293L615.195 292.538C615.195 292.538 615.195 281.47 603.78 281.47C592.366 281.47 587.523 292.538 587.523 292.538L564.312 416.332C563.33 421.567 558.759 425.361 553.433 425.361L537.715 425.361C531.602 425.361 526.646 420.406 526.646 414.293L526.646 270.401C526.646 270.401 526.646 259.333 512.811 259.333C498.975 259.333 498.975 270.401 498.975 270.401L498.975 414.293C498.975 420.406 494.019 425.361 487.906 425.361L472.574 425.361C467.078 425.361 462.414 421.328 461.621 415.89L443.632 292.538C443.632 292.538 438.098 281.47 427.029 281.47C415.961 281.47 415.961 292.538 415.961 292.538L433.484 412.695C434.458 419.373 429.28 425.361 422.531 425.361L409.043 425.361L393.824 425.361C387.711 425.361 382.755 420.406 382.755 414.293L382.755 388.005L382.755 364.484L382.755 345.114L382.755 195.689C382.755 195.689 382.696 85.0031 512.811 85C642.925 84.9969 642.925 195.689 642.925 195.689C642.925 195.689 642.94 294.614 642.925 336.813C642.911 379.012 642.866 364.484 642.866 364.484L642.866 388.005L642.866 414.293C642.866 420.406 637.91 425.361 631.797 425.361L616.608 425.361L590.29 425.361L590.29 425.361L590.29 453.032L596.066 453.032L670.537 414.293L670.537 394.923L670.537 364.484C670.537 364.484 753.552 361.717 753.552 251.031C753.552 140.346 670.537 140.346 670.537 140.346L670.537 140.346L626.663 140.346C626.663 140.346 639.13 173.552 639.13 170.784C639.13 168.017 642.858 168.017 642.858 168.017L670.537 168.017C670.537 168.017 725.88 168.017 725.88 251.031C725.88 334.046 670.537 336.813 670.537 336.813L653.935 336.813C647.822 336.813 642.925 336.813 642.925 348.791L642.866 195.689Z" fill="#5a8470" fill-rule="nonzero" opacity="1" stroke="#f4006f" stroke-linecap="butt" stroke-linejoin="round" stroke-opacity="0.216481" stroke-width="0"/>
<path d="M620.729 131.349C620.729 131.349 626.344 140.346 631.878 140.346C637.412 140.346 642.866 140.346 642.866 140.346L642.866 168.017L640.099 168.017L640.099 168.017L639.096 170.326L639.13 170.571L639.767 173.552L637.332 173.552L620.729 131.349Z" fill="#5a8470" fill-rule="nonzero" opacity="1" stroke="#f4006f" stroke-linecap="butt" stroke-linejoin="round" stroke-opacity="0.216481" stroke-width="0"/>
<path d="M385.522 140.346C385.522 140.346 389.416 140.346 393.824 140.346C398.231 140.346 404.892 131.349 404.892 131.349L404.892 168.017L385.439 176.319L385.522 140.346Z" fill="#5a8470" fill-rule="nonzero" opacity="1" stroke="#f4006f" stroke-linecap="butt" stroke-linejoin="round" stroke-opacity="0.216481" stroke-width="0"/>
</g>
<g opacity="1">
<path d="M227.795 771.253L211.193 771.253C211.193 771.253 200.124 771.253 200.124 757.418C200.124 743.582 211.193 743.582 211.193 743.582L227.795 743.582C227.795 743.582 238.864 743.582 238.864 757.418C238.864 771.253 227.795 771.253 227.795 771.253" fill="#5a8470" fill-rule="nonzero" opacity="1" stroke="#f4006f" stroke-linecap="butt" stroke-linejoin="round" stroke-opacity="0.216481" stroke-width="0"/>
<path d="M274.606 771.253C274.606 771.253 263.768 771.253 263.768 757.418C263.768 743.582 274.837 743.582 274.837 743.582L438.098 743.582C438.098 743.582 449.166 743.582 449.166 757.418C449.166 771.253 438.098 771.253 438.098 771.253L274.606 771.253Z" fill="#5a8470" fill-rule="nonzero" opacity="1" stroke="#f4006f" stroke-linecap="butt" stroke-linejoin="round" stroke-opacity="0.216481" stroke-width="0"/>
<path d="M211.193 710.376C211.193 710.376 200.124 710.376 200.124 696.541C200.124 682.705 211.193 682.705 211.193 682.705L438.098 682.705C438.098 682.705 449.166 682.705 449.166 696.541C449.166 710.376 438.098 710.376 438.098 710.376L211.193 710.376Z" fill="#5a8470" fill-rule="nonzero" opacity="1" stroke="#f4006f" stroke-linecap="butt" stroke-linejoin="round" stroke-opacity="0.216481" stroke-width="0"/>
<path d="M211.193 649.499C211.193 649.499 200.124 649.499 200.124 635.664C200.124 621.828 211.193 621.828 211.193 621.828L438.098 621.828C438.098 621.828 449.166 621.828 449.166 635.664C449.166 649.499 438.098 649.499 438.098 649.499L211.193 649.499Z" fill="#5a8470" fill-rule="nonzero" opacity="1" stroke="#f4006f" stroke-linecap="butt" stroke-linejoin="round" stroke-opacity="0.216481" stroke-width="0"/>
<path d="M227.795 588.622L211.193 588.622C211.193 588.622 200.124 588.622 200.124 574.786C200.124 560.951 211.193 560.951 211.193 560.951L227.795 560.951C227.795 560.951 238.864 560.951 238.864 574.786C238.864 588.622 227.795 588.622 227.795 588.622" fill="#5a8470" fill-rule="nonzero" opacity="1" stroke="#f4006f" stroke-linecap="butt" stroke-linejoin="round" stroke-opacity="0.216481" stroke-width="0"/>
<path d="M274.606 588.622C274.606 588.622 263.768 588.622 263.768 574.786C263.768 560.951 274.837 560.951 274.837 560.951L438.098 560.951C438.098 560.951 449.166 560.951 449.166 574.786C449.166 588.622 438.098 588.622 438.098 588.622L274.606 588.622Z" fill="#5a8470" fill-rule="nonzero" opacity="1" stroke="#f4006f" stroke-linecap="butt" stroke-linejoin="round" stroke-opacity="0.216481" stroke-width="0"/>
</g>
<g opacity="1">
<path d="M593.058 771.253L576.455 771.253C576.455 771.253 565.386 771.253 565.386 757.418C565.386 743.582 576.455 743.582 576.455 743.582L593.058 743.582C593.058 743.582 604.126 743.582 604.126 757.418C604.126 771.253 593.058 771.253 593.058 771.253" fill="#5a8470" fill-rule="nonzero" opacity="1" stroke="#f4006f" stroke-linecap="butt" stroke-linejoin="round" stroke-opacity="0.216481" stroke-width="0"/>
<path d="M656.702 771.253L640.099 771.253C640.099 771.253 629.03 771.253 629.03 757.418C629.03 743.582 640.099 743.582 640.099 743.582L656.702 743.582C656.702 743.582 667.77 743.582 667.77 757.418C667.77 771.253 656.702 771.253 656.702 771.253" fill="#5a8470" fill-rule="nonzero" opacity="1" stroke="#f4006f" stroke-linecap="butt" stroke-linejoin="round" stroke-opacity="0.216481" stroke-width="0"/>
<path d="M576.455 710.376C576.455 710.376 565.386 710.376 565.386 696.541C565.386 682.705 576.455 682.705 576.455 682.705L667.77 682.705C667.77 682.705 678.839 682.705 678.839 696.541C678.839 710.376 665.003 710.376 665.003 710.376L576.455 710.376Z" fill="#5a8470" fill-rule="nonzero" opacity="1" stroke="#f4006f" stroke-linecap="butt" stroke-linejoin="round" stroke-opacity="0.216481" stroke-width="0"/>
<path d="M576.455 649.499C576.455 649.499 565.386 649.499 565.386 635.664C565.386 621.828 576.455 621.828 576.455 621.828L667.77 621.828C667.77 621.828 678.839 621.828 678.839 635.664C678.839 649.499 665.003 649.499 665.003 649.499L576.455 649.499Z" fill="#5a8470" fill-rule="nonzero" opacity="1" stroke="#f4006f" stroke-linecap="butt" stroke-linejoin="round" stroke-opacity="0.216481" stroke-width="0"/>
<path d="M576.455 588.622C576.455 588.622 565.386 588.622 565.386 574.786C565.386 560.951 576.455 560.951 576.455 560.951L667.77 560.951C667.77 560.951 678.839 560.951 678.839 574.786C678.839 588.622 665.003 588.622 665.003 588.622L576.455 588.622Z" fill="#5a8470" fill-rule="nonzero" opacity="1" stroke="#f4006f" stroke-linecap="butt" stroke-linejoin="round" stroke-opacity="0.216481" stroke-width="0"/>
</g>
</g>
</svg>
